<svg xmlns="http://www.w3.org/2000/svg" width="30" height="30" viewBox="0 0 30 30">
  <path id="iconmonstr-github-1" d="M15,0A15.2,15.2,0,0,0,0,15.379,15.353,15.353,0,0,0,10.259,29.973c.749.142.991-.334.991-.739V26.37c-4.172.93-5.041-1.815-5.041-1.815A4.048,4.048,0,0,0,4.542,22.3c-1.361-.955.1-.934.1-.934a3.158,3.158,0,0,1,2.3,1.585,3.149,3.149,0,0,0,4.365,1.278,3.294,3.294,0,0,1,.952-2.056c-3.331-.391-6.834-1.71-6.834-7.6a6.036,6.036,0,0,1,1.545-4.128,5.662,5.662,0,0,1,.146-4.07s1.26-.413,4.126,1.576a13.88,13.88,0,0,1,7.511,0c2.864-1.989,4.121-1.576,4.121-1.576a5.656,5.656,0,0,1,.147,4.07,6.02,6.02,0,0,1,1.544,4.128c0,5.907-3.509,7.208-6.849,7.588a3.725,3.725,0,0,1,1.029,2.848v4.22c0,.409.24.889,1,.738A15.354,15.354,0,0,0,30,15.379,15.194,15.194,0,0,0,15,0Z" fill="#707070"/>
</svg>
